<?xml version="1.0" encoding="UTF-8"?>
<svg id="newBookCoversEditableText" xmlns="http://www.w3.org/2000/svg" xmlns:xlink="http://www.w3.org/1999/xlink" viewBox="0 0 148.03 193.76">
  <defs>
    <style>
      .cls-1 {
        clip-path: url(#clippath);
      }

      .cls-2 {
        fill: none;
      }

      .cls-2, .cls-3, .cls-4, .cls-5, .cls-6, .cls-7, .cls-8, .cls-9 {
        stroke-width: 0px;
      }

      .cls-10 {
        clip-path: url(#clippath-1);
      }

      .cls-11 {
        stroke: #05004d;
        stroke-linecap: round;
        stroke-linejoin: round;
        stroke-width: .5px;
      }

      .cls-11, .cls-9 {
        fill: #05004d;
      }

      .cls-3 {
        fill: #f3f4ef;
      }

      .cls-4 {
        fill: #6364ff;
      }

      .cls-5 {
        fill: #3e4347;
      }

      .cls-6 {
        fill: #b6b9c2;
      }

      .cls-7 {
        fill: #fff;
      }

      .cls-8 {
        fill: #f5f6f3;
      }
    </style>
    <clipPath id="clippath">
      <rect class="cls-2" x="6.59" y="1.98" width="139.7" height="189.79" rx="8.44" ry="8.44"/>
    </clipPath>
    <clipPath id="clippath-1">
      <rect class="cls-2" x="174.62" y="1.98" width="139.7" height="189.79" rx="8.44" ry="8.44"/>
    </clipPath>
  </defs>
  <g>
    <g>
      <g>
        <rect class="cls-4" x="6.59" y="1.98" width="139.7" height="189.79" rx="8.44" ry="8.44"/>
        <g class="cls-1">
          <path class="cls-9" d="M35.48,275.57c-4.69,0-9.38-1.21-13.56-3.62l-31.71-18.28c-8.38-4.83-13.59-13.84-13.59-23.52v-36.51c0-9.67,5.21-18.69,13.59-23.52l31.71-18.28c8.36-4.82,18.76-4.82,27.12,0l31.71,18.28c8.38,4.83,13.59,13.84,13.59,23.52v36.51c0,9.68-5.21,18.69-13.59,23.52l-31.71,18.28c-4.18,2.41-8.87,3.62-13.56,3.62Z"/>
          <path class="cls-9" d="M119.28,33.03c-4.69,0-9.38-1.21-13.56-3.62l-31.71-18.28c-8.38-4.83-13.59-13.84-13.59-23.52v-36.51c0-9.67,5.21-18.69,13.59-23.52l31.71-18.28c8.36-4.82,18.76-4.82,27.12,0l31.71,18.28c8.38,4.83,13.59,13.84,13.59,23.52V-12.38c0,9.68-5.21,18.69-13.59,23.52l-31.71,18.28c-4.18,2.41-8.87,3.62-13.56,3.62Z"/>
        </g>
      </g>
      <g>
        <path class="cls-3" d="M74.23,46.41c-.15.15-.25.28-.38.39-.58.5-1.27.73-2.03.74-.82,0-1.58-.22-2.22-.75-.51-.42-.84-.96-1.05-1.58-.27-.78-.29-1.59-.18-2.4.09-.59.28-1.13.62-1.62.58-.85,1.38-1.33,2.4-1.43.52-.05,1.03,0,1.53.16.52.17.95.47,1.29.89.02.03.04.07.08.09.04-.05.02-.11.02-.17,0-.21,0-.43,0-.64,0-.08.03-.11.11-.11.47,0,.95,0,1.42,0,.08,0,.11.03.1.1,0,.04,0,.08,0,.12,0,3.17,0,6.33,0,9.5,0,.02,0,.03,0,.05,0,.17,0,.17-.17.17-.46,0-.93,0-1.39,0-.17,0-.17,0-.17-.17,0-1.05,0-2.11,0-3.16,0-.05,0-.09,0-.18ZM70.08,43.62c0,.45.07.89.26,1.3.31.69.83,1.12,1.6,1.2.92.1,1.78-.41,2.13-1.26.33-.81.32-1.63,0-2.43-.31-.77-.89-1.21-1.73-1.28-.85-.06-1.5.27-1.92,1.02-.25.45-.34.94-.34,1.45Z"/>
        <path class="cls-3" d="M106.06,44.13c.02.25.08.5.17.73.24.58.63,1.01,1.23,1.21.65.21,1.29.18,1.89-.19.19-.12.34-.28.46-.47.06-.1.13-.14.25-.13.47,0,.94,0,1.41,0,.05,0,.1,0,.15.01,0,.08-.03.14-.05.2-.47,1.09-1.29,1.75-2.44,2.02-.77.18-1.53.15-2.28-.08-.85-.27-1.52-.78-1.97-1.55-.48-.82-.62-1.71-.54-2.64.05-.61.22-1.18.53-1.71.36-.62.87-1.1,1.52-1.41.89-.42,1.82-.5,2.76-.26.95.24,1.67.8,2.13,1.67.38.71.52,1.48.49,2.28,0,.1.04.23-.04.3-.07.06-.19.02-.29.02-1.74,0-3.48-.01-5.21-.02-.06,0-.12-.01-.18.02ZM108.08,42.88h0c.61,0,1.21,0,1.82,0,.15,0,.16,0,.13-.16-.04-.23-.11-.46-.23-.67-.2-.36-.48-.64-.87-.81-.34-.15-.7-.18-1.07-.15-.98.09-1.56.74-1.72,1.63-.03.16-.02.16.14.16.6,0,1.19,0,1.79,0Z"/>
        <path class="cls-3" d="M61.73,44.09c.01.28.09.54.19.79.24.56.63.97,1.21,1.16.66.21,1.3.18,1.9-.2.19-.12.34-.28.45-.47.06-.09.12-.12.22-.12.48,0,.96,0,1.44,0,.05,0,.09,0,.14.02-.04.19-.13.37-.22.54-.5.9-1.27,1.44-2.28,1.67-.76.17-1.52.15-2.27-.08-.77-.24-1.4-.68-1.86-1.35-.54-.79-.72-1.67-.69-2.6.02-.6.15-1.18.42-1.72.37-.75.93-1.31,1.69-1.65,1.04-.47,2.11-.5,3.18-.09.72.27,1.26.77,1.63,1.44.45.8.58,1.66.53,2.56,0,.09-.04.11-.12.1-.24,0-.49,0-.73,0-1.56,0-3.13,0-4.69-.01-.06,0-.12,0-.18.02ZM65.71,42.83c-.06-.55-.27-1.02-.7-1.37-.46-.38-1.01-.46-1.59-.39-.27.03-.52.12-.75.26-.53.33-.77.84-.88,1.43-.01.06,0,.09.07.09.03,0,.07,0,.1,0,1.19,0,2.37,0,3.56,0,.06,0,.12.01.18-.02Z"/>
        <path class="cls-3" d="M82.44,46.4c-.06,0-.07.06-.09.1-.39.57-.93.91-1.61,1.02-.57.1-1.13.07-1.68-.12-.64-.22-1.07-.67-1.32-1.29-.17-.42-.25-.85-.28-1.3,0-.17-.01-.35-.01-.52,0-1.38,0-2.75,0-4.13,0-.2-.02-.19.18-.19.45,0,.9,0,1.36,0,.22,0,.19,0,.19.2,0,1.23,0,2.45,0,3.68,0,.41.01.81.12,1.2.09.32.24.61.51.83.09.07.19.13.3.16.55.17,1.08.16,1.56-.19.32-.23.48-.58.57-.95.09-.36.12-.73.12-1.1,0-1.2,0-2.4,0-3.59,0-.27-.04-.24.24-.24.43,0,.87,0,1.3,0,.21,0,.19,0,.19.18,0,.39,0,.78,0,1.16,0,1.9,0,3.8,0,5.69,0,.09,0,.17,0,.26,0,.07-.02.11-.1.1-.02,0-.05,0-.07,0-.43,0-.87,0-1.3,0-.17,0-.17,0-.17-.17,0-.23,0-.45,0-.68,0-.04.02-.09-.02-.13Z"/>
        <path class="cls-3" d="M98.06,45.04c.23,0,.45,0,.68,0,.1,0,.14.03.17.12.08.25.21.46.4.64.24.23.53.36.87.4.42.05.84.03,1.21-.2.25-.15.41-.35.42-.66.01-.23-.09-.4-.27-.53-.19-.13-.42-.2-.64-.27-.46-.13-.91-.25-1.37-.39-.36-.1-.7-.23-1.03-.41-.79-.43-1.1-1.15-.98-2.03.1-.73.52-1.25,1.16-1.59.69-.37,1.43-.45,2.19-.37.5.05.97.2,1.4.49.58.38.92.92,1.02,1.6,0,.04,0,.08.01.12,0,.05-.02.07-.07.08-.02,0-.05,0-.07,0-.42,0-.83,0-1.25,0-.09,0-.14-.02-.18-.12-.2-.48-.57-.74-1.08-.81-.35-.05-.69-.04-1.02.11-.27.13-.43.34-.45.65-.01.25.09.44.3.56.27.16.56.24.86.32.5.13,1,.24,1.49.42.32.12.62.25.9.45.37.26.6.61.67,1.05.13.78-.03,1.49-.6,2.07-.37.38-.84.61-1.36.73-.77.18-1.54.16-2.3-.07-.72-.22-1.26-.67-1.59-1.36-.13-.27-.21-.56-.28-.85-.04-.17-.04-.18.13-.18.22,0,.44,0,.66,0Z"/>
        <path class="cls-3" d="M89.88,43.6c0-.71,0-1.41,0-2.12,0-.03,0-.07,0-.1,0-.09-.03-.12-.12-.12-.23,0-.46,0-.69,0-.05,0-.1,0-.16,0-.15,0-.15,0-.15-.15,0-.34,0-.67,0-1.01,0-.09.03-.12.12-.12.29,0,.58,0,.87,0,.13,0,.13,0,.13-.14,0-.55,0-1.1,0-1.65,0-.04,0-.08,0-.12,0-.06.02-.1.09-.1.02,0,.03,0,.05,0,.49,0,.97,0,1.46,0,.13,0,.13,0,.13.14,0,.57,0,1.13,0,1.7,0,.16,0,.16.16.16.36,0,.73,0,1.09,0,.13,0,.13,0,.14.13,0,.34,0,.67,0,1.01,0,.13,0,.14-.13.14-.36,0-.73,0-1.09,0-.16,0-.16,0-.16.16,0,1.29,0,2.58,0,3.87,0,.15.02.3.06.45.07.24.23.38.47.44.2.05.4.05.6.03.11,0,.12,0,.12.11,0,.35,0,.69,0,1.04,0,.08-.02.12-.1.13-.6.06-1.19.06-1.77-.13-.67-.22-1.01-.7-1.09-1.38-.02-.14-.02-.29-.02-.43,0-.65,0-1.3,0-1.94Z"/>
        <path class="cls-3" d="M94.23,43.68c0-1.17,0-2.34,0-3.51,0-.19-.02-.19.19-.19.45,0,.9,0,1.36,0,.22,0,.19,0,.19.2,0,1.93,0,3.87,0,5.8,0,.42,0,.83,0,1.25,0,.15,0,.16-.15.16-.47,0-.95,0-1.42,0-.16,0-.16,0-.16-.17,0-1.02,0-2.04,0-3.06v-.49Z"/>
        <path class="cls-3" d="M87.68,43.69c0,1.15,0,2.3,0,3.45,0,.04,0,.08,0,.12,0,.09-.04.12-.12.12-.5,0-1,0-1.49,0-.1,0-.12-.04-.12-.12,0-.03,0-.07,0-.1,0-2.32,0-4.64,0-6.96,0-.03,0-.06,0-.09,0-.13,0-.13.14-.13.49,0,.97,0,1.46,0,.13,0,.13,0,.13.14,0,.57,0,1.13,0,1.7,0,.62,0,1.25,0,1.87Z"/>
        <path class="cls-3" d="M86.81,38.91c-.25,0-.51,0-.76,0-.12,0-.13,0-.13-.13,0-.45,0-.9,0-1.35,0-.13,0-.13.12-.13.51,0,1.03,0,1.54,0,.08,0,.11.03.11.11,0,.46,0,.92,0,1.39,0,.09-.04.12-.12.12-.25,0-.51,0-.76,0Z"/>
        <path class="cls-3" d="M95.1,37.3c.25,0,.51,0,.76,0,.09,0,.12.03.12.12,0,.46,0,.91,0,1.37,0,.12,0,.12-.13.12-.51,0-1.02,0-1.53,0-.09,0-.12-.02-.12-.12,0-.46,0-.92,0-1.39,0-.09.04-.11.11-.11.26,0,.52,0,.78,0Z"/>
        <path class="cls-3" d="M114.08,40.96c-.67,0-1.19-.53-1.19-1.19,0-.67.54-1.2,1.21-1.19.66,0,1.19.54,1.18,1.2,0,.66-.53,1.18-1.2,1.18ZM115.04,39.77c0-.53-.44-.97-.96-.96-.53,0-.95.43-.95.97,0,.54.43.97.95.96.53,0,.95-.43.95-.97Z"/>
        <path class="cls-3" d="M114.68,40.47c-.11,0-.2,0-.29,0-.06,0-.09-.05-.12-.09-.07-.11-.13-.23-.2-.34-.02-.04-.05-.08-.11-.06-.05.02-.03.07-.03.11,0,.1,0,.21,0,.31,0,.05-.02.08-.07.08-.02,0-.03,0-.05,0-.23,0-.19,0-.19-.18,0-.35,0-.71,0-1.06,0-.12,0-.13.12-.13.17,0,.34,0,.5,0,.2.01.33.11.38.27.06.19,0,.38-.17.49-.08.05-.08.09-.03.16.09.13.18.27.25.44ZM113.92,39.52s0,.07,0,.1c0,.03.01.06.05.06.1,0,.2.02.29-.03.06-.03.07-.09.07-.15,0-.06-.04-.11-.11-.12-.04,0-.09-.01-.14-.01-.15,0-.16,0-.16.15Z"/>
        <g>
          <path class="cls-7" d="M45.27,52.98c-.14-.08-.31-.12-.45-.19-.42-.2-.82-.45-1.23-.69-.72-.41-1.44-.82-2.15-1.23-.69-.4-1.4-.77-2.07-1.21-.81-.54-1.34-1.3-1.62-2.24-.11-.36-.15-.73-.15-1.11,0-1.83,0-3.66,0-5.49,0-1.23.48-2.24,1.38-3.06.23-.21.5-.38.77-.53.99-.57,1.99-1.14,2.98-1.71.64-.36,1.28-.73,1.92-1.09.38-.21.79-.33,1.22-.4.03,0,.05-.02.08-.03.22,0,.43-.01.65-.01.71,0,1.36.2,1.98.55.65.37,1.29.74,1.93,1.11.99.57,1.99,1.13,2.97,1.71.73.43,1.26,1.06,1.6,1.84.24.55.34,1.12.33,1.72,0,1.79,0,3.57,0,5.36,0,1.17-.43,2.16-1.26,2.98-.28.28-.61.49-.95.68-.66.38-1.33.76-1.99,1.14-.9.51-1.79,1.03-2.69,1.53-.89.5-1.84.65-2.84.45-.14-.03-.27-.08-.41-.09ZM53.76,43.57c0-.82,0-1.63,0-2.45,0-.31-.05-.61-.14-.9-.24-.74-.71-1.29-1.38-1.68-.54-.31-1.07-.61-1.61-.92-.86-.49-1.72-.99-2.58-1.48-.4-.23-.82-.38-1.28-.41-.55-.04-1.07.04-1.55.29-.46.24-.9.5-1.35.76-1.02.58-2.05,1.17-3.07,1.76-1.01.58-1.53,1.46-1.54,2.62-.02,1.6,0,3.21,0,4.81,0,.2.02.41.06.61.18.87.65,1.53,1.41,1.99.23.14.47.27.71.41,1.17.67,2.35,1.35,3.52,2.02,1.01.57,2.03.59,3.05.03.47-.25.93-.53,1.39-.79.9-.52,1.81-1.04,2.71-1.55.35-.2.67-.42.93-.73.48-.56.72-1.21.72-1.95,0-.81,0-1.62,0-2.43Z"/>
          <path class="cls-7" d="M48.66,44.39c-.93,0-1.86,0-2.79,0-.26,0-.48-.08-.65-.27-.21-.24-.28-.52-.16-.82.12-.32.36-.5.7-.54.06,0,.12,0,.19,0,1.27,0,2.54,0,3.81,0,.21,0,.22,0,.15-.21-.25-.78-.72-1.39-1.38-1.86-.48-.33-1.01-.54-1.58-.61-.77-.09-1.5.05-2.18.44-.82.48-1.39,1.17-1.66,2.09-.32,1.08-.12,2.09.52,3.01.4.58.93,1,1.59,1.25.72.27,1.46.32,2.2.12.61-.17,1.14-.46,1.59-.91.06-.06.12-.09.21-.09.58,0,1.17,0,1.75,0,.02,0,.05,0,.07,0,.04,0,.06.03.05.07-.01.03-.03.06-.05.09-.51.87-1.21,1.53-2.1,2-.92.48-1.9.68-2.93.59-1.02-.09-1.94-.47-2.75-1.11-.62-.49-1.1-1.09-1.45-1.8-.36-.74-.54-1.52-.51-2.33.04-1.24.46-2.33,1.26-3.28.72-.86,1.65-1.39,2.73-1.65.64-.15,1.29-.19,1.94-.1,1.26.17,2.3.74,3.15,1.67.69.75,1.12,1.63,1.29,2.64.08.5.09,1,.01,1.51-.02.13-.02.13-.15.13-.32,0-.64,0-.95,0-.64,0-1.28,0-1.92,0Z"/>
        </g>
      </g>
      <g>
        <path class="cls-8" d="M37.6,126.77h74.76c1.61,0,2.91,1.31,2.91,2.91v12.78H40.52c-1.61,0-2.91-1.31-2.91-2.91v-12.78h0Z"/>
        <g>
          <path class="cls-4" d="M64,138.2v-1.29c.9-.69,1.26-.98,2.38-1.89.89-.73,1.19-1.28,1.19-1.85s-.35-.89-.92-.89c-.69,0-.99.47-.99,1.14h-1.6c0-1.55.98-2.54,2.61-2.54s2.59.86,2.59,2.18c0,1.07-.69,1.93-1.65,2.66-.72.56-1.11.79-1.58,1.19.23,0,.36,0,.59,0h2.68v1.3h-5.31Z"/>
          <path class="cls-4" d="M75.87,134.65c0,2.22-.56,3.71-2.76,3.71s-2.77-1.48-2.77-3.71c0-2.04.53-3.78,2.77-3.78s2.76,1.73,2.76,3.78ZM74.2,134.69c0-1.69-.24-2.51-1.09-2.51s-1.09.82-1.09,2.51.25,2.36,1.09,2.36,1.09-.73,1.09-2.36Z"/>
          <path class="cls-4" d="M76.87,138.2v-1.29c.9-.69,1.26-.98,2.38-1.89.89-.73,1.19-1.28,1.19-1.85s-.35-.89-.92-.89c-.69,0-.99.47-.99,1.14h-1.6c0-1.55.98-2.54,2.61-2.54s2.59.86,2.59,2.18c0,1.07-.69,1.93-1.65,2.66-.72.56-1.11.79-1.58,1.19.23,0,.36,0,.59,0h2.68v1.3h-5.31Z"/>
          <path class="cls-4" d="M88.89,136.81h-1.01v1.39h-1.55v-1.39h-3.35v-1.24l3.04-4.53h1.85v4.47h1.01v1.3ZM85.32,135.51h1v-1.69c0-.43.02-.83.03-1.24h-.02c-.27.47-.47.81-.75,1.24l-.54.82c-.11.17-.26.38-.38.57-.07.11-.15.21-.22.31.27,0,.49,0,.88,0Z"/>
        </g>
      </g>
      <g>
        <rect class="cls-7" x="37.6" y="105.69" width="77.67" height="15.69" rx="2.91" ry="2.91"/>
        <g>
          <path class="cls-11" d="M61.96,116.03h-1.14v-5.01h1.85c.59,0,.99.06,1.35.31.36.27.57.69.57,1.17,0,.87-.53,1.34-1.11,1.53l1.25,2h-1.29l-1.06-1.81h-.43v1.81ZM61.96,113.31h.64c.54,0,.86-.21.86-.66,0-.48-.33-.65-.94-.65h-.57v1.31Z"/>
          <path class="cls-11" d="M67.56,115.05h2.18v.98h-3.32v-5.01h3.29v.98h-2.16v1.02h1.98v.97h-1.98v1.06Z"/>
          <path class="cls-11" d="M72.79,116.03c-.5-1.45-1.28-3.81-1.67-5.01h1.27l.79,2.68c.15.52.2.73.33,1.27h.02c.13-.51.18-.77.35-1.29l.8-2.66h1.2c-.22.71-.65,1.95-1.01,3.03l-.67,1.98h-1.41Z"/>
          <path class="cls-11" d="M77.46,116.03v-5.01h1.15v5.01h-1.15Z"/>
          <path class="cls-11" d="M81.85,115.05h2.19v.98h-3.32v-5.01h3.29v.98h-2.16v1.02h1.98v.97h-1.98v1.06Z"/>
          <path class="cls-11" d="M92.06,111.03c-.34,1.68-.69,3.33-1.02,5.01h-1.51l-.53-2.84c-.09-.45-.1-.66-.18-1.18h-.02c-.08.53-.1.66-.19,1.15l-.55,2.88h-1.53l-1.02-5.01h1.16c.14.78.25,1.55.38,2.34l.1.55c.08.48.08.6.16,1.13h.03c.09-.67.13-.78.29-1.68l.46-2.34h1.48l.41,2.23c.14.75.25,1.39.29,1.81h.03c.06-.48.08-.67.18-1.14l.5-2.89h1.06Z"/>
        </g>
      </g>
      <g>
        <rect class="cls-7" x="37.6" y="63.9" width="77.67" height="15.69" rx="2.91" ry="2.91"/>
        <g>
          <path class="cls-11" d="M68.62,72.37v1.88h-1.15v-1.88l-.6-1.14c-.34-.64-.74-1.44-1.04-1.99h1.28c.33.7.65,1.4.96,2.07h.01c.2-.5.5-1.11.95-2.07h1.23l-1.65,3.13Z"/>
          <path class="cls-11" d="M72.94,73.27h2.19v.98h-3.32v-5.01h3.29v.98h-2.16v1.02h1.98v.97h-1.98v1.06Z"/>
          <path class="cls-11" d="M76.43,74.25c.45-1.2,1.19-3.17,1.92-5.01h1.38c.6,1.6,1.27,3.43,1.87,5.01h-1.2c-.15-.4-.29-.77-.44-1.18h-1.89l-.45,1.18h-1.18ZM79.64,72.15c-.26-.82-.45-1.35-.63-1.96h-.01c-.17.62-.41,1.3-.62,1.96h1.27Z"/>
          <path class="cls-11" d="M84.27,74.25h-1.14v-5.01h1.85c.59,0,.99.06,1.35.31.36.27.57.69.57,1.17,0,.87-.52,1.34-1.11,1.53l1.25,2h-1.29l-1.06-1.81h-.43v1.81ZM84.27,71.52h.64c.54,0,.86-.21.86-.66,0-.48-.33-.65-.94-.65h-.57v1.31Z"/>
        </g>
      </g>
      <g>
        <rect class="cls-7" x="37.6" y="84.85" width="77.67" height="15.69" rx="2.91" ry="2.91"/>
        <g>
          <path class="cls-11" d="M72.65,95.2v-5.01h1.15v5.01h-1.15Z"/>
          <path class="cls-11" d="M80.24,95.2h-1.46l-1.09-2.1c-.34-.67-.62-1.23-.74-1.53h0c.02.41.01,1.07.01,1.59v2.05h-1.06v-5.01h1.48l1.27,2.51c.25.5.42.91.53,1.16h0c-.02-.42-.02-.91-.02-1.45v-2.21h1.06v5.01Z"/>
        </g>
      </g>
    </g>
    <g>
      <g>
        <g>
          <path class="cls-5" d="M9.8,180.75c0-1.06.83-1.92,1.86-1.92s1.86.86,1.86,1.92c0,1.06-.83,1.92-1.86,1.92-1.03,0-1.86-.86-1.86-1.92Z"/>
          <path class="cls-5" d="M9.8,173.01c0-1.06.83-1.92,1.86-1.92,1.03,0,1.86.86,1.86,1.92,0,1.06-.83,1.92-1.86,1.92-1.03,0-1.86-.86-1.86-1.92Z"/>
          <path class="cls-5" d="M9.8,165.37c0-1.06.83-1.92,1.86-1.92,1.03,0,1.86.86,1.86,1.92s-.83,1.92-1.86,1.92c-1.03,0-1.86-.86-1.86-1.92Z"/>
          <path class="cls-5" d="M9.8,157.72c0-1.06.83-1.92,1.86-1.92,1.03,0,1.86.86,1.86,1.92,0,1.06-.83,1.92-1.86,1.92-1.03,0-1.86-.86-1.86-1.92Z"/>
          <path class="cls-5" d="M3.21,164.96s0-.02,0-.03c0,.01,0,.02,0,.04h0ZM3.46,162.57c-.81.41-1.68,1.11-1.72,2.36-.04,1.21,1.38,1.23,1.47.06,0,0,0,0,0,0,0,.03.2-.27.11-.18.28-.28.57-.43.89-.56.93-.4,1.92-.51,2.9-.52v-1.91c-1.22,0-2.5.17-3.65.75Z"/>
          <path class="cls-5" d="M3.21,172.61s0-.02,0-.03c0,.01,0,.02,0,.03h0ZM3.46,170.21c-.81.41-1.68,1.11-1.72,2.36-.04,1.21,1.38,1.23,1.47.06,0,0,0,0,0,0,0,.03.2-.27.11-.18.28-.28.57-.43.89-.56.93-.4,1.92-.51,2.9-.52v-1.91c-1.22,0-2.5.17-3.65.75Z"/>
          <path class="cls-5" d="M3.21,180.26s0-.02,0-.03c0,.01,0,.02,0,.03h0ZM3.46,177.86c-.81.41-1.68,1.11-1.72,2.37-.04,1.21,1.38,1.23,1.47.06,0,0,0,0,0,0,0,.03.2-.27.11-.18.28-.28.57-.42.89-.56.93-.4,1.92-.51,2.9-.52v-1.91c-1.22,0-2.5.17-3.65.75Z"/>
          <path class="cls-5" d="M3.21,157.32s0-.02,0-.03c0,.01,0,.02,0,.04h0ZM3.46,154.92c-.81.41-1.68,1.11-1.72,2.36-.04,1.21,1.38,1.23,1.47.06,0,0,0,0,0,0,0,.03.2-.27.11-.18.28-.28.57-.42.89-.56.93-.4,1.92-.51,2.9-.52v-1.91c-1.22,0-2.5.17-3.65.75Z"/>
          <path class="cls-6" d="M11,165.37c0,.22.04-.22,0,0,.05-.22.01-.05-.02.02.11-.24-.2.22-.08.11-.28.28-.57.43-.89.56-.93.4-1.92.51-2.9.52-.98,0-1.96-.14-2.9-.52-.31-.13-.56-.27-.84-.51-.04-.03-.09-.08-.19-.24.11.17.01,0,0-.05.04.13.05.14.02.04.01.15.01.17,0,.06-.04-1.23-1.51-1.23-1.47,0,.04,1.27.91,1.93,1.72,2.36,1.13.6,2.44.75,3.65.75,1.22,0,2.5-.18,3.65-.75.81-.41,1.68-1.11,1.72-2.36.04-1.23-1.43-1.23-1.47,0Z"/>
          <path class="cls-6" d="M11,173.01c0,.22.04-.22,0,0,.05-.22.01-.05-.02.02.11-.24-.2.23-.08.11-.28.28-.57.43-.89.56-.93.4-1.92.51-2.9.52-.98,0-1.96-.14-2.9-.52-.31-.12-.56-.27-.84-.51-.04-.03-.09-.08-.19-.24.11.17.01,0,0-.04.04.13.05.14.02.04.01.15.01.17,0,.06-.04-1.23-1.51-1.23-1.47,0,.04,1.27.91,1.93,1.72,2.36,1.13.61,2.44.75,3.65.75,1.22,0,2.5-.18,3.65-.75.81-.41,1.68-1.11,1.72-2.36.04-1.23-1.43-1.23-1.47,0Z"/>
          <path class="cls-6" d="M11,180.66c0,.22.04-.22,0,0,.05-.22.01-.05-.02.02.11-.24-.2.22-.08.11-.28.28-.57.42-.89.56-.93.4-1.92.51-2.9.52-.98,0-1.96-.14-2.9-.52-.31-.13-.56-.27-.84-.51-.04-.03-.09-.08-.19-.24.11.17.01,0,0-.04.04.13.05.14.02.04.01.15.01.17,0,.07-.04-1.23-1.51-1.23-1.47,0,.04,1.27.91,1.93,1.72,2.36,1.13.6,2.44.74,3.65.75,1.22,0,2.5-.18,3.65-.75.81-.41,1.68-1.11,1.72-2.36.04-1.23-1.43-1.23-1.47,0Z"/>
          <path class="cls-6" d="M11,157.72c0,.22.04-.22,0,0,.05-.22.01-.05-.02.02.11-.24-.2.23-.08.11-.28.28-.57.43-.89.56-.93.4-1.92.51-2.9.52-.98,0-1.96-.14-2.9-.52-.31-.13-.56-.27-.84-.51-.04-.03-.09-.08-.19-.24.11.17.01,0,0-.05.04.13.05.14.02.04.01.15.01.17,0,.06-.04-1.23-1.51-1.23-1.47,0,.04,1.27.91,1.93,1.72,2.36,1.13.61,2.44.75,3.65.75,1.22,0,2.5-.18,3.65-.75.81-.41,1.68-1.11,1.72-2.36.04-1.23-1.43-1.23-1.47,0Z"/>
        </g>
        <g>
          <path class="cls-5" d="M9.8,150.42c0-1.06.83-1.92,1.86-1.92s1.86.86,1.86,1.92c0,1.06-.83,1.92-1.86,1.92-1.03,0-1.86-.86-1.86-1.92Z"/>
          <path class="cls-5" d="M9.8,142.68c0-1.06.83-1.92,1.86-1.92,1.03,0,1.86.86,1.86,1.92,0,1.06-.83,1.92-1.86,1.92-1.03,0-1.86-.86-1.86-1.92Z"/>
          <path class="cls-5" d="M9.8,135.03c0-1.06.83-1.92,1.86-1.92,1.03,0,1.86.86,1.86,1.92s-.83,1.92-1.86,1.92c-1.03,0-1.86-.86-1.86-1.92Z"/>
          <path class="cls-5" d="M9.8,127.39c0-1.06.83-1.92,1.86-1.92,1.03,0,1.86.86,1.86,1.92,0,1.06-.83,1.92-1.86,1.92-1.03,0-1.86-.86-1.86-1.92Z"/>
          <path class="cls-5" d="M3.21,134.63s0-.02,0-.03c0,.01,0,.02,0,.04h0ZM3.46,132.23c-.81.41-1.68,1.11-1.72,2.36-.04,1.21,1.38,1.23,1.47.06,0,0,0,0,0,0,0,.03.2-.27.11-.18.28-.28.57-.43.89-.56.93-.4,1.92-.51,2.9-.52v-1.91c-1.22,0-2.5.17-3.65.75Z"/>
          <path class="cls-5" d="M3.21,142.28s0-.02,0-.03c0,.01,0,.02,0,.03h0ZM3.46,139.88c-.81.41-1.68,1.11-1.72,2.36-.04,1.21,1.38,1.23,1.47.06,0,0,0,0,0,0,0,.03.2-.27.11-.18.28-.28.57-.43.89-.56.93-.4,1.92-.51,2.9-.52v-1.91c-1.22,0-2.5.17-3.65.75Z"/>
          <path class="cls-5" d="M3.21,149.92s0-.02,0-.03c0,.01,0,.02,0,.03h0ZM3.46,147.53c-.81.41-1.68,1.11-1.72,2.37-.04,1.21,1.38,1.23,1.47.06,0,0,0,0,0,0,0,.03.2-.27.11-.18.28-.28.57-.42.89-.56.93-.4,1.92-.51,2.9-.52v-1.91c-1.22,0-2.5.17-3.65.75Z"/>
          <path class="cls-5" d="M3.21,126.99s0-.02,0-.03c0,.01,0,.02,0,.04h0ZM3.46,124.59c-.81.41-1.68,1.11-1.72,2.36-.04,1.21,1.38,1.23,1.47.06,0,0,0,0,0,0,0,.03.2-.27.11-.18.28-.28.57-.42.89-.56.93-.4,1.92-.51,2.9-.52v-1.91c-1.22,0-2.5.17-3.65.75Z"/>
          <path class="cls-6" d="M11,135.03c0,.22.04-.22,0,0,.05-.22.01-.05-.02.02.11-.24-.2.22-.08.11-.28.28-.57.43-.89.56-.93.4-1.92.51-2.9.52-.98,0-1.96-.14-2.9-.52-.31-.13-.56-.27-.84-.51-.04-.03-.09-.08-.19-.24.11.17.01,0,0-.05.04.13.05.14.02.04.01.15.01.17,0,.06-.04-1.23-1.51-1.23-1.47,0,.04,1.27.91,1.93,1.72,2.36,1.13.6,2.44.75,3.65.75,1.22,0,2.5-.18,3.65-.75.81-.41,1.68-1.11,1.72-2.36.04-1.23-1.43-1.23-1.47,0Z"/>
          <path class="cls-6" d="M11,142.68c0,.22.04-.22,0,0,.05-.22.01-.05-.02.02.11-.24-.2.23-.08.11-.28.28-.57.43-.89.56-.93.4-1.92.51-2.9.52-.98,0-1.96-.14-2.9-.52-.31-.12-.56-.27-.84-.51-.04-.03-.09-.08-.19-.24.11.17.01,0,0-.04.04.13.05.14.02.04.01.15.01.17,0,.06-.04-1.23-1.51-1.23-1.47,0,.04,1.27.91,1.93,1.72,2.36,1.13.61,2.44.75,3.65.75,1.22,0,2.5-.18,3.65-.75.81-.41,1.68-1.11,1.72-2.36.04-1.23-1.43-1.23-1.47,0Z"/>
          <path class="cls-6" d="M11,150.32c0,.22.04-.22,0,0,.05-.22.01-.05-.02.02.11-.24-.2.22-.08.11-.28.28-.57.42-.89.56-.93.4-1.92.51-2.9.52-.98,0-1.96-.14-2.9-.52-.31-.13-.56-.27-.84-.51-.04-.03-.09-.08-.19-.24.11.17.01,0,0-.04.04.13.05.14.02.04.01.15.01.17,0,.07-.04-1.23-1.51-1.23-1.47,0,.04,1.27.91,1.93,1.72,2.36,1.13.6,2.44.74,3.65.75,1.22,0,2.5-.18,3.65-.75.81-.41,1.68-1.11,1.72-2.36.04-1.23-1.43-1.23-1.47,0Z"/>
          <path class="cls-6" d="M11,127.39c0,.22.04-.22,0,0,.05-.22.01-.05-.02.02.11-.24-.2.23-.08.11-.28.28-.57.43-.89.56-.93.4-1.92.51-2.9.52-.98,0-1.96-.14-2.9-.52-.31-.13-.56-.27-.84-.51-.04-.03-.09-.08-.19-.24.11.17.01,0,0-.05.04.13.05.14.02.04.01.15.01.17,0,.06-.04-1.23-1.51-1.23-1.47,0,.04,1.27.91,1.93,1.72,2.36,1.13.61,2.44.75,3.65.75,1.22,0,2.5-.18,3.65-.75.81-.41,1.68-1.11,1.72-2.36.04-1.23-1.43-1.23-1.47,0Z"/>
        </g>
        <g>
          <path class="cls-5" d="M9.8,120.08c0-1.06.83-1.92,1.86-1.92,1.03,0,1.86.86,1.86,1.92,0,1.06-.83,1.92-1.86,1.92-1.03,0-1.86-.86-1.86-1.92Z"/>
          <path class="cls-5" d="M9.8,112.35c0-1.06.83-1.92,1.86-1.92,1.03,0,1.86.86,1.86,1.92,0,1.06-.83,1.92-1.86,1.92-1.03,0-1.86-.86-1.86-1.92Z"/>
          <path class="cls-5" d="M9.8,104.7c0-1.06.83-1.92,1.86-1.92,1.03,0,1.86.86,1.86,1.92s-.83,1.92-1.86,1.92c-1.03,0-1.86-.86-1.86-1.92Z"/>
          <path class="cls-5" d="M9.8,97.05c0-1.06.83-1.92,1.86-1.92,1.03,0,1.86.86,1.86,1.92,0,1.06-.83,1.92-1.86,1.92-1.03,0-1.86-.86-1.86-1.92Z"/>
          <path class="cls-5" d="M3.21,104.3s0-.02,0-.03c0,.01,0,.02,0,.04h0ZM3.46,101.9c-.81.41-1.68,1.11-1.72,2.36-.04,1.21,1.38,1.23,1.47.06,0,0,0,0,0,0,0,.03.2-.27.11-.18.28-.28.57-.43.89-.56.93-.4,1.92-.51,2.9-.52v-1.91c-1.22,0-2.5.17-3.65.75Z"/>
          <path class="cls-5" d="M3.21,111.94s0-.02,0-.03c0,.01,0,.02,0,.03h0ZM3.46,109.55c-.81.41-1.68,1.11-1.72,2.36-.04,1.21,1.38,1.23,1.47.06,0,0,0,0,0,0,0,.03.2-.27.11-.18.28-.28.57-.43.89-.56.93-.4,1.92-.51,2.9-.52v-1.91c-1.22,0-2.5.17-3.65.75Z"/>
          <path class="cls-5" d="M3.21,119.59s0-.02,0-.03c0,.01,0,.02,0,.03h0ZM3.46,117.19c-.81.41-1.68,1.11-1.72,2.37-.04,1.21,1.38,1.23,1.47.06,0,0,0,0,0,0,0,.03.2-.27.11-.18.28-.28.57-.42.89-.56.93-.4,1.92-.51,2.9-.52v-1.91c-1.22,0-2.5.17-3.65.75Z"/>
          <path class="cls-5" d="M3.21,96.65s0-.02,0-.03c0,.01,0,.02,0,.04h0ZM3.46,94.25c-.81.41-1.68,1.11-1.72,2.36-.04,1.21,1.38,1.23,1.47.06,0,0,0,0,0,0,0,.03.2-.27.11-.18.28-.28.57-.42.89-.56.93-.4,1.92-.51,2.9-.52v-1.91c-1.22,0-2.5.17-3.65.75Z"/>
          <path class="cls-6" d="M11,104.7c0,.22.04-.22,0,0,.05-.22.01-.05-.02.02.11-.24-.2.22-.08.11-.28.28-.57.43-.89.56-.93.4-1.92.51-2.9.52-.98,0-1.96-.14-2.9-.52-.31-.13-.56-.27-.84-.51-.04-.03-.09-.08-.19-.24.11.17.01,0,0-.05.04.13.05.14.02.04.01.15.01.17,0,.06-.04-1.23-1.51-1.23-1.47,0,.04,1.27.91,1.93,1.72,2.36,1.13.6,2.44.75,3.65.75,1.22,0,2.5-.18,3.65-.75.81-.41,1.68-1.11,1.72-2.36.04-1.23-1.43-1.23-1.47,0Z"/>
          <path class="cls-6" d="M11,112.34c0,.22.04-.22,0,0,.05-.22.01-.05-.02.02.11-.24-.2.23-.08.11-.28.28-.57.43-.89.56-.93.4-1.92.51-2.9.52-.98,0-1.96-.14-2.9-.52-.31-.12-.56-.27-.84-.51-.04-.03-.09-.08-.19-.24.11.17.01,0,0-.04.04.13.05.14.02.04.01.15.01.17,0,.06-.04-1.23-1.51-1.23-1.47,0,.04,1.27.91,1.93,1.72,2.36,1.13.61,2.44.75,3.65.75,1.22,0,2.5-.18,3.65-.75.81-.41,1.68-1.11,1.72-2.36.04-1.23-1.43-1.23-1.47,0Z"/>
          <path class="cls-6" d="M11,119.99c0,.22.04-.22,0,0,.05-.22.01-.05-.02.02.11-.24-.2.22-.08.11-.28.28-.57.42-.89.56-.93.4-1.92.51-2.9.52-.98,0-1.96-.14-2.9-.52-.31-.13-.56-.27-.84-.51-.04-.03-.09-.08-.19-.24.11.17.01,0,0-.04.04.13.05.14.02.04.01.15.01.17,0,.07-.04-1.23-1.51-1.23-1.47,0,.04,1.27.91,1.93,1.72,2.36,1.13.6,2.44.74,3.65.75,1.22,0,2.5-.18,3.65-.75.81-.41,1.68-1.11,1.72-2.36.04-1.23-1.43-1.23-1.47,0Z"/>
          <path class="cls-6" d="M11,97.05c0,.22.04-.22,0,0,.05-.22.01-.05-.02.02.11-.24-.2.23-.08.11-.28.28-.57.43-.89.56-.93.4-1.92.51-2.9.52-.98,0-1.96-.14-2.9-.52-.31-.13-.56-.27-.84-.51-.04-.03-.09-.08-.19-.24.11.17.01,0,0-.05.04.13.05.14.02.04.01.15.01.17,0,.06-.04-1.23-1.51-1.23-1.47,0,.04,1.27.91,1.93,1.72,2.36,1.13.61,2.44.75,3.65.75,1.22,0,2.5-.18,3.65-.75.81-.41,1.68-1.11,1.72-2.36.04-1.23-1.43-1.23-1.47,0Z"/>
        </g>
      </g>
      <g>
        <g>
          <path class="cls-5" d="M9.8,97.23c0-1.06.83-1.92,1.86-1.92,1.03,0,1.86.86,1.86,1.92,0,1.06-.83,1.92-1.86,1.92-1.03,0-1.86-.86-1.86-1.92Z"/>
          <path class="cls-5" d="M9.8,89.49c0-1.06.83-1.92,1.86-1.92s1.86.86,1.86,1.92c0,1.06-.83,1.92-1.86,1.92-1.03,0-1.86-.86-1.86-1.92Z"/>
          <path class="cls-5" d="M9.8,81.85c0-1.06.83-1.92,1.86-1.92,1.03,0,1.86.86,1.86,1.92s-.83,1.92-1.86,1.92c-1.03,0-1.86-.86-1.86-1.92Z"/>
          <path class="cls-5" d="M9.8,74.2c0-1.06.83-1.92,1.86-1.92,1.03,0,1.86.86,1.86,1.92,0,1.06-.83,1.92-1.86,1.92-1.03,0-1.86-.86-1.86-1.92Z"/>
          <path class="cls-5" d="M3.21,81.45s0-.02,0-.03c0,.01,0,.02,0,.04h0ZM3.46,79.05c-.81.41-1.68,1.11-1.72,2.36-.04,1.21,1.38,1.23,1.47.06,0,0,0,0,0,0,0,.03.2-.27.11-.18.28-.28.57-.43.89-.56.93-.4,1.92-.51,2.9-.52v-1.91c-1.22,0-2.5.17-3.65.75Z"/>
          <path class="cls-5" d="M3.21,89.09s0-.02,0-.03c0,.01,0,.02,0,.03h0ZM3.46,86.7c-.81.41-1.68,1.11-1.72,2.36-.04,1.21,1.38,1.23,1.47.06,0,0,0,0,0,0,0,.03.2-.27.11-.18.28-.28.57-.43.89-.56.93-.4,1.92-.51,2.9-.52v-1.91c-1.22,0-2.5.17-3.65.75Z"/>
          <path class="cls-5" d="M3.21,96.74s0-.02,0-.03c0,.01,0,.02,0,.03h0ZM3.46,94.34c-.81.41-1.68,1.11-1.72,2.37-.04,1.21,1.38,1.23,1.47.06,0,0,0,0,0,0,0,.03.2-.27.11-.18.28-.28.57-.42.89-.56.93-.4,1.92-.51,2.9-.52v-1.91c-1.22,0-2.5.17-3.65.75Z"/>
          <path class="cls-5" d="M3.21,73.8s0-.02,0-.03c0,.01,0,.02,0,.04h0ZM3.46,71.4c-.81.41-1.68,1.11-1.72,2.36-.04,1.21,1.38,1.23,1.47.06,0,0,0,0,0,0,0,.03.2-.27.11-.18.28-.28.57-.42.89-.56.93-.4,1.92-.51,2.9-.52v-1.91c-1.22,0-2.5.17-3.65.75Z"/>
          <path class="cls-6" d="M11,81.85c0,.22.04-.22,0,0,.05-.22.01-.05-.02.02.11-.24-.2.22-.08.11-.28.28-.57.43-.89.56-.93.4-1.92.51-2.9.52-.98,0-1.96-.14-2.9-.52-.31-.13-.56-.27-.84-.51-.04-.03-.09-.08-.19-.24.11.17.01,0,0-.05.04.13.05.14.02.04.01.15.01.17,0,.06-.04-1.23-1.51-1.23-1.47,0,.04,1.27.91,1.93,1.72,2.36,1.13.6,2.44.75,3.65.75,1.22,0,2.5-.18,3.65-.75.81-.41,1.68-1.11,1.72-2.36.04-1.23-1.43-1.23-1.47,0Z"/>
          <path class="cls-6" d="M11,89.49c0,.22.04-.22,0,0,.05-.22.01-.05-.02.02.11-.24-.2.23-.08.11-.28.28-.57.43-.89.56-.93.4-1.92.51-2.9.52-.98,0-1.96-.14-2.9-.52-.31-.12-.56-.27-.84-.51-.04-.03-.09-.08-.19-.24.11.17.01,0,0-.04.04.13.05.14.02.04.01.15.01.17,0,.06-.04-1.23-1.51-1.23-1.47,0,.04,1.27.91,1.93,1.72,2.36,1.13.61,2.44.75,3.65.75,1.22,0,2.5-.18,3.65-.75.81-.41,1.68-1.11,1.72-2.36.04-1.23-1.43-1.23-1.47,0Z"/>
          <path class="cls-6" d="M11,97.14c0,.22.04-.22,0,0,.05-.22.01-.05-.02.02.11-.24-.2.22-.08.11-.28.28-.57.42-.89.56-.93.4-1.92.51-2.9.52-.98,0-1.96-.14-2.9-.52-.31-.13-.56-.27-.84-.51-.04-.03-.09-.08-.19-.24.11.17.01,0,0-.04.04.13.05.14.02.04.01.15.01.17,0,.07-.04-1.23-1.51-1.23-1.47,0,.04,1.27.91,1.93,1.72,2.36,1.13.6,2.44.74,3.65.75,1.22,0,2.5-.18,3.65-.75.81-.41,1.68-1.11,1.72-2.36.04-1.23-1.43-1.23-1.47,0Z"/>
          <path class="cls-6" d="M11,74.2c0,.22.04-.22,0,0,.05-.22.01-.05-.02.02.11-.24-.2.23-.08.11-.28.28-.57.43-.89.56-.93.4-1.92.51-2.9.52-.98,0-1.96-.14-2.9-.52-.31-.13-.56-.27-.84-.51-.04-.03-.09-.08-.19-.24.11.17.01,0,0-.05.04.13.05.14.02.04.01.15.01.17,0,.06-.04-1.23-1.51-1.23-1.47,0,.04,1.27.91,1.93,1.72,2.36,1.13.61,2.44.75,3.65.75,1.22,0,2.5-.18,3.65-.75.81-.41,1.68-1.11,1.72-2.36.04-1.23-1.43-1.23-1.47,0Z"/>
        </g>
        <g>
          <path class="cls-5" d="M9.8,66.9c0-1.06.83-1.92,1.86-1.92,1.03,0,1.86.86,1.86,1.92,0,1.06-.83,1.92-1.86,1.92s-1.86-.86-1.86-1.92Z"/>
          <path class="cls-5" d="M9.8,59.16c0-1.06.83-1.92,1.86-1.92,1.03,0,1.86.86,1.86,1.92,0,1.06-.83,1.92-1.86,1.92-1.03,0-1.86-.86-1.86-1.92Z"/>
          <path class="cls-5" d="M9.8,51.52c0-1.06.83-1.92,1.86-1.92,1.03,0,1.86.86,1.86,1.92s-.83,1.92-1.86,1.92c-1.03,0-1.86-.86-1.86-1.92Z"/>
          <path class="cls-5" d="M9.8,43.87c0-1.06.83-1.92,1.86-1.92,1.03,0,1.86.86,1.86,1.92,0,1.06-.83,1.92-1.86,1.92-1.03,0-1.86-.86-1.86-1.92Z"/>
          <path class="cls-5" d="M3.21,51.11s0-.02,0-.03c0,.01,0,.02,0,.04h0ZM3.46,48.72c-.81.41-1.68,1.11-1.72,2.36-.04,1.21,1.38,1.23,1.47.06,0,0,0,0,0,0,0,.03.2-.27.11-.18.28-.28.57-.43.89-.56.93-.4,1.92-.51,2.9-.52v-1.91c-1.22,0-2.5.17-3.65.75Z"/>
          <path class="cls-5" d="M3.21,58.76s0-.02,0-.03c0,.01,0,.02,0,.03h0ZM3.46,56.36c-.81.41-1.68,1.11-1.72,2.36-.04,1.21,1.38,1.23,1.47.06,0,0,0,0,0,0,0,.03.2-.27.11-.18.28-.28.57-.43.89-.56.93-.4,1.92-.51,2.9-.52v-1.91c-1.22,0-2.5.17-3.65.75Z"/>
          <path class="cls-5" d="M3.21,66.41s0-.02,0-.03c0,.01,0,.02,0,.03h0ZM3.46,64.01c-.81.41-1.68,1.11-1.72,2.37-.04,1.21,1.38,1.23,1.47.06,0,0,0,0,0,0,0,.03.2-.27.11-.18.28-.28.57-.42.89-.56.93-.4,1.92-.51,2.9-.52v-1.91c-1.22,0-2.5.17-3.65.75Z"/>
          <path class="cls-5" d="M3.21,43.47s0-.02,0-.03c0,.01,0,.02,0,.04h0ZM3.46,41.07c-.81.41-1.68,1.11-1.72,2.36-.04,1.21,1.38,1.23,1.47.06,0,0,0,0,0,0,0,.03.2-.27.11-.18.28-.28.57-.42.89-.56.93-.4,1.92-.51,2.9-.52v-1.91c-1.22,0-2.5.17-3.65.75Z"/>
          <path class="cls-6" d="M11,51.52c0,.22.04-.22,0,0,.05-.22.01-.05-.02.02.11-.24-.2.22-.08.11-.28.28-.57.43-.89.56-.93.4-1.92.51-2.9.52-.98,0-1.96-.14-2.9-.52-.31-.13-.56-.27-.84-.51-.04-.03-.09-.08-.19-.24.11.17.01,0,0-.05.04.13.05.14.02.04.01.15.01.17,0,.06-.04-1.23-1.51-1.23-1.47,0,.04,1.27.91,1.93,1.72,2.36,1.13.6,2.44.75,3.65.75,1.22,0,2.5-.18,3.65-.75.81-.41,1.68-1.11,1.72-2.36.04-1.23-1.43-1.23-1.47,0Z"/>
          <path class="cls-6" d="M11,59.16c0,.22.04-.22,0,0,.05-.22.01-.05-.02.02.11-.24-.2.23-.08.11-.28.28-.57.43-.89.56-.93.4-1.92.51-2.9.52-.98,0-1.96-.14-2.9-.52-.31-.12-.56-.27-.84-.51-.04-.03-.09-.08-.19-.24.11.17.01,0,0-.04.04.13.05.14.02.04.01.15.01.17,0,.06-.04-1.23-1.51-1.23-1.47,0,.04,1.27.91,1.93,1.72,2.36,1.13.61,2.44.75,3.65.75,1.22,0,2.5-.18,3.65-.75.81-.41,1.68-1.11,1.72-2.36.04-1.23-1.43-1.23-1.47,0Z"/>
          <path class="cls-6" d="M11,66.81c0,.22.04-.22,0,0,.05-.22.01-.05-.02.02.11-.24-.2.22-.08.11-.28.28-.57.42-.89.56-.93.4-1.92.51-2.9.52-.98,0-1.96-.14-2.9-.52-.31-.13-.56-.27-.84-.51-.04-.03-.09-.08-.19-.24.11.17.01,0,0-.04.04.13.05.14.02.04.01.15.01.17,0,.07-.04-1.23-1.51-1.23-1.47,0,.04,1.27.91,1.93,1.72,2.36,1.13.6,2.44.74,3.65.75,1.22,0,2.5-.18,3.65-.75.81-.41,1.68-1.11,1.72-2.36.04-1.23-1.43-1.23-1.47,0Z"/>
          <path class="cls-6" d="M11,43.87c0,.22.04-.22,0,0,.05-.22.01-.05-.02.02.11-.24-.2.23-.08.11-.28.28-.57.43-.89.56-.93.4-1.92.51-2.9.52-.98,0-1.96-.14-2.9-.52-.31-.13-.56-.27-.84-.51-.04-.03-.09-.08-.19-.24.11.17.01,0,0-.05.04.13.05.14.02.04.01.15.01.17,0,.06-.04-1.23-1.51-1.23-1.47,0,.04,1.27.91,1.93,1.72,2.36,1.13.61,2.44.75,3.65.75,1.22,0,2.5-.18,3.65-.75.81-.41,1.68-1.11,1.72-2.36.04-1.23-1.43-1.23-1.47,0Z"/>
        </g>
        <g>
          <path class="cls-5" d="M9.8,36.57c0-1.06.83-1.92,1.86-1.92,1.03,0,1.86.86,1.86,1.92,0,1.06-.83,1.92-1.86,1.92-1.03,0-1.86-.86-1.86-1.92Z"/>
          <path class="cls-5" d="M9.8,28.83c0-1.06.83-1.92,1.86-1.92,1.03,0,1.86.86,1.86,1.92,0,1.06-.83,1.92-1.86,1.92-1.03,0-1.86-.86-1.86-1.92Z"/>
          <path class="cls-5" d="M9.8,21.18c0-1.06.83-1.92,1.86-1.92,1.03,0,1.86.86,1.86,1.92s-.83,1.92-1.86,1.92-1.86-.86-1.86-1.92Z"/>
          <path class="cls-5" d="M9.8,13.54c0-1.06.83-1.92,1.86-1.92s1.86.86,1.86,1.92c0,1.06-.83,1.92-1.86,1.92-1.03,0-1.86-.86-1.86-1.92Z"/>
          <path class="cls-5" d="M3.21,20.78s0-.02,0-.03c0,.01,0,.02,0,.04h0ZM3.46,18.39c-.81.41-1.68,1.11-1.72,2.36-.04,1.21,1.38,1.23,1.47.06,0,0,0,0,0,0,0,.03.2-.27.11-.18.28-.28.57-.43.89-.56.93-.4,1.92-.51,2.9-.52v-1.91c-1.22,0-2.5.17-3.65.75Z"/>
          <path class="cls-5" d="M3.21,28.43s0-.02,0-.03c0,.01,0,.02,0,.03h0ZM3.46,26.03c-.81.41-1.68,1.11-1.72,2.36-.04,1.21,1.38,1.23,1.47.06,0,0,0,0,0,0,0,.03.2-.27.11-.18.28-.28.57-.43.89-.56.93-.4,1.92-.51,2.9-.52v-1.91c-1.22,0-2.5.17-3.65.75Z"/>
          <path class="cls-5" d="M3.21,36.08s0-.02,0-.03c0,.01,0,.02,0,.03h0ZM3.46,33.68c-.81.41-1.68,1.11-1.72,2.37-.04,1.21,1.38,1.23,1.47.06,0,0,0,0,0,0,0,.03.2-.27.11-.18.28-.28.57-.42.89-.56.93-.4,1.92-.51,2.9-.52v-1.91c-1.22,0-2.5.17-3.65.75Z"/>
          <path class="cls-5" d="M3.21,13.14s0-.02,0-.03c0,.01,0,.02,0,.04h0ZM3.46,10.74c-.81.41-1.68,1.11-1.72,2.36-.04,1.21,1.38,1.23,1.47.06,0,0,0,0,0,0,0,.03.2-.27.11-.18.28-.28.57-.42.89-.56.93-.4,1.92-.51,2.9-.52v-1.91c-1.22,0-2.5.17-3.65.75Z"/>
          <path class="cls-6" d="M11,21.18c0,.22.04-.22,0,0,.05-.22.01-.05-.02.02.11-.24-.2.22-.08.11-.28.28-.57.43-.89.56-.93.4-1.92.51-2.9.52-.98,0-1.96-.14-2.9-.52-.31-.13-.56-.27-.84-.51-.04-.03-.09-.08-.19-.24.11.17.01,0,0-.05.04.13.05.14.02.04.01.15.01.17,0,.06-.04-1.23-1.51-1.23-1.47,0,.04,1.27.91,1.93,1.72,2.36,1.13.6,2.44.75,3.65.75,1.22,0,2.5-.18,3.65-.75.81-.41,1.68-1.11,1.72-2.36.04-1.23-1.43-1.23-1.47,0Z"/>
          <path class="cls-6" d="M11,28.83c0,.22.04-.22,0,0,.05-.22.01-.05-.02.02.11-.24-.2.23-.08.11-.28.28-.57.43-.89.56-.93.4-1.92.51-2.9.52-.98,0-1.96-.14-2.9-.52-.31-.12-.56-.27-.84-.51-.04-.03-.09-.08-.19-.24.11.17.01,0,0-.04.04.13.05.14.02.04.01.15.01.17,0,.06-.04-1.23-1.51-1.23-1.47,0,.04,1.27.91,1.93,1.72,2.36,1.13.61,2.44.75,3.65.75,1.22,0,2.5-.18,3.65-.75.81-.41,1.68-1.11,1.72-2.36.04-1.23-1.43-1.23-1.47,0Z"/>
          <path class="cls-6" d="M11,36.48c0,.22.04-.22,0,0,.05-.22.01-.05-.02.02.11-.24-.2.22-.08.11-.28.28-.57.42-.89.56-.93.4-1.92.51-2.9.52-.98,0-1.96-.14-2.9-.52-.31-.13-.56-.27-.84-.51-.04-.03-.09-.08-.19-.24.11.17.01,0,0-.04.04.13.05.14.02.04.01.15.01.17,0,.07-.04-1.23-1.51-1.23-1.47,0,.04,1.27.91,1.93,1.72,2.36,1.13.6,2.44.74,3.65.75,1.22,0,2.5-.18,3.65-.75.81-.41,1.68-1.11,1.72-2.36.04-1.23-1.43-1.23-1.47,0Z"/>
          <path class="cls-6" d="M11,13.54c0,.22.04-.22,0,0,.05-.22.01-.05-.02.02.11-.24-.2.23-.08.11-.28.28-.57.43-.89.56-.93.4-1.92.51-2.9.52-.98,0-1.96-.14-2.9-.52-.31-.13-.56-.27-.84-.51-.04-.03-.09-.08-.19-.24.11.17.01,0,0-.05.04.13.05.14.02.04.01.15.01.17,0,.06-.04-1.23-1.51-1.23-1.47,0,.04,1.27.91,1.93,1.72,2.36,1.13.61,2.44.75,3.65.75,1.22,0,2.5-.18,3.65-.75.81-.41,1.68-1.11,1.72-2.36.04-1.23-1.43-1.23-1.47,0Z"/>
        </g>
      </g>
    </g>
  </g>
  <g class="cls-10">
    <path class="cls-4" d="M203.51,275.57c-4.69,0-9.38-1.21-13.56-3.62l-31.71-18.28c-8.38-4.83-13.59-13.84-13.59-23.52v-36.51c0-9.67,5.21-18.69,13.59-23.52l31.71-18.28c8.36-4.82,18.76-4.82,27.12,0l31.71,18.28c8.38,4.83,13.59,13.84,13.59,23.52v36.51c0,9.68-5.21,18.69-13.59,23.52l-31.71,18.28c-4.18,2.41-8.87,3.62-13.56,3.62Z"/>
  </g>
</svg>